<svg aria-hidden="true" style="position: absolute; width: 0; height: 0; overflow: hidden;" version="1.1" xmlns="http://www.w3.org/2000/svg" xmlns:xlink="http://www.w3.org/1999/xlink">
<defs>
<symbol id="icon-data" viewBox="0 0 32 32">
<title>data</title>
<path d="M30 25.187c0 0.762-0.591 1.413-1.321 1.413h-25.359c-0.729 0-1.321-0.651-1.321-1.413v-15.241c0-0.762 0.591-1.346 1.321-1.346h25.358c0.729 0 1.321 0.584 1.321 1.346v15.241zM2.65 7.933h9.805l-0.416-1.216c-0.244-0.774-1.066-1.317-1.802-1.317h-6.904c-0.736 0-1.333 0.597-1.333 1.333v1.366c0.194-0.106 0.415-0.166 0.65-0.166z"></path>
</symbol>
<symbol id="icon-live" viewBox="0 0 32 32">
<title>live</title>
<path d="M30 6.944l-8.067 5.56v-4.271c0-0.726-0.543-1.3-1.253-1.3h-17.428c-0.71 0-1.32 0.574-1.32 1.3v15.372c0 0.726 0.609 1.328 1.32 1.328h17.428c0.71 0 1.253-0.602 1.253-1.328v-4.221l8.067 5.643v-18.084z"></path>
</symbol>
<symbol id="icon-record" viewBox="0 0 32 32">
<title>record</title>
<path d="M28.6 6.067h-25.333c-0.736 0-1.333 0.597-1.333 1.333v17.333c0 0.736 0.597 1.333 1.333 1.333h25.333c0.736 0 1.333-0.597 1.333-1.333v-17.333c0-0.736-0.597-1.333-1.333-1.333zM12.267 20.67v-9.23l7.994 4.615-7.994 4.615z"></path>
</symbol>
<symbol id="icon-test" viewBox="0 0 32 32">
<title>test</title>
<path d="M30 6.267c0-0.736-0.597-1.333-1.333-1.333h-25.333c-0.736 0-1.333 0.597-1.333 1.333v19.333c0 0.736 0.597 1.333 1.333 1.333h25.333c0.736 0 1.333-0.597 1.333-1.333v-19.333zM15.304 21.533l-1.197-3.133h-4.291l-1.127 3.133h-1.442l3.941-10.267h1.463l4.2 10.267h-1.547zM24.4 17.067h-2.8v2.8h-1.2v-2.8h-2.8v-1.2h2.8v-2.8h1.2v2.8h2.8v1.2zM11.888 12.334c-0.131 0.658-0.315 1.326-0.553 1.975l-1.127 3.025h3.479l-1.071-2.857c-0.327-0.863-0.569-1.587-0.728-2.143z"></path>
</symbol>
</defs>
</svg>
