<svg aria-hidden="true" style="position: absolute; width: 0; height: 0; overflow: hidden;" version="1.1" xmlns="http://www.w3.org/2000/svg" xmlns:xlink="http://www.w3.org/1999/xlink">
<defs>
<symbol id="icon-heart" viewBox="0 0 32 32">
<title>heart</title>
<path d="M16.007 27.984c0 0 8.315-7.092 10.206-10.193 1.562-2.561 1.792-4.332 1.792-6.833 0-3.982-2.955-6.963-6.851-6.963-3.511 0-5.144 3.405-5.144 3.405h-0.011c0 0-1.632-3.405-5.144-3.405-3.897 0-6.851 2.968-6.851 6.95 0 2.501 0.23 4.279 1.792 6.84 1.891 3.101 10.176 10.191 10.176 10.191l0.035 0.008z"></path>
</symbol>
<symbol id="icon-user-border" viewBox="0 0 32 32">
<title>user border</title>
<path d="M20.161 15.629c1.722-1.275 2.839-3.321 2.839-5.629 0-3.866-3.134-7-7-7s-7 3.134-7 7c0 2.307 1.117 4.354 2.839 5.629-5.7 1.772-9.839 7.088-9.839 13.371h2c0-6.627 5.373-12 12-12s12 5.373 12 12h2c0-6.283-4.139-11.599-9.839-13.371zM10.892 9.961c0-2.761 2.239-5 5-5s5 2.239 5 5c0 2.761-2.239 5-5 5s-5-2.239-5-5z"></path>
</symbol>
<symbol id="icon-star" viewBox="0 0 32 32">
<title>star</title>
<path d="M28.349 13.74c0.163-0.146 0.268-0.357 0.268-0.593 0-0.441-0.358-0.799-0.799-0.799-0.040 0-0.079 0.006-0.117 0.012l-7.987-0.431-2.899-7.518c-0.068-0.372-0.393-0.732-0.785-0.732-0.372 0-0.682 0.121-0.771 0.521h-0.007l-2.92 7.651-8.017 0.471c-0.044-0.007-0.088 0.006-0.133 0.006-0.441 0-0.799 0.368-0.799 0.809 0 0.229 0.098 0.439 0.252 0.585l-0.003 0.010 6.419 5.215-2.082 7.818c-0.045 0.1-0.071 0.21-0.071 0.327 0 0.441 0.358 0.799 0.799 0.799 0.207 0 0.394-0.081 0.536-0.21l6.79-4.395 6.762 4.377c0.144 0.141 0.34 0.228 0.557 0.228 0.441 0 0.799-0.358 0.799-0.799 0-0.097-0.020-0.188-0.051-0.274l-2.096-7.87 6.367-5.172-0.012-0.037z"></path>
</symbol>
<symbol id="icon-group-border" viewBox="0 0 32 32">
<title>group-border</title>
<path d="M17.872 16.011c1.321-1.101 2.162-2.758 2.162-4.611 0-3.314-2.686-6-6-6s-6 2.686-6 6c0 1.84 0.829 3.486 2.134 4.587-4.756 1.595-8.184 6.084-8.184 11.377 0 0.012 0.001 0.024 0.001 0.036h2.071c-0-0.019-0.001-0.037-0.001-0.056 0-5.305 4.132-9.643 9.352-9.977 0.206 0.021 0.416 0.033 0.628 0.033 0.217 0 0.431-0.012 0.643-0.035 5.232 0.322 9.377 4.665 9.377 9.979 0 0.019-0.001 0.037-0.001 0.056h1.93c0-0.012 0.001-0.024 0.001-0.036-0-5.266-3.393-9.736-8.112-11.352zM10.034 11.4c0-2.209 1.791-4 4-4s4 1.791 4 4c0 2.063-1.562 3.76-3.567 3.976-0.16-0.006-0.321-0.012-0.483-0.012-0.133 0-0.265 0.006-0.396 0.010-1.999-0.222-3.553-1.916-3.553-3.974zM21.872 15.211c1.321-1.101 2.162-2.758 2.162-4.611 0-3.314-2.686-6-6-6-0.485 0-0.957 0.059-1.408 0.168 1.143 0.446 2.14 1.184 2.899 2.122 1.47 0.591 2.51 2.028 2.51 3.71 0 1.187-0.519 2.252-1.341 2.984-0.005 0.311-0.672 0.935-0.672 1.854s0.66 1.224 0.643 1.453c4.256 1.148 7.389 5.034 7.389 9.654 0 0.019-0.001 0.037-0.001 0.056h1.93c0-0.012 0.001-0.024 0.001-0.036-0-5.266-3.393-9.736-8.112-11.352z"></path>
</symbol>
<symbol id="icon-star-border" viewBox="0 0 32 32">
<title>star-border</title>
<path d="M28.283 13.888c0.163-0.146 0.267-0.355 0.267-0.59 0-0.439-0.356-0.795-0.795-0.795-0.040 0-0.078 0.006-0.117 0.012l-7.942-0.428-2.883-7.476c-0.068-0.37-0.391-0.662-0.78-0.662-0.37 0-0.678 0.251-0.767 0.585h-0.007l-2.904 7.542-7.972 0.436c-0.043-0.007-0.087-0.011-0.133-0.011-0.439 0-0.795 0.357-0.795 0.796 0 0.228 0.097 0.433 0.251 0.578l-0.002 0.008 6.383 5.185-2.070 7.774c-0.045 0.099-0.071 0.209-0.071 0.325 0 0.439 0.356 0.795 0.795 0.795 0.206 0 0.392-0.080 0.533-0.209l6.751-4.37 6.724 4.352c0.143 0.14 0.338 0.226 0.554 0.226 0.439 0 0.795-0.356 0.795-0.795 0-0.096-0.020-0.187-0.051-0.273l-2.084-7.825 6.331-5.142-0.012-0.037zM19.925 18.477l1.738 6.527-5.67-3.67-5.67 3.67 1.738-6.527-5.243-4.259 6.744-0.364 2.43-6.302 2.43 6.302 6.744 0.364-5.243 4.258z"></path>
</symbol>
<symbol id="icon-list" viewBox="0 0 32 32">
<title>list</title>
<path d="M7 5h22v2h-22v-2zM3 5h2v2h-2v-2zM7 15h22v2h-22v-2zM3 15h2v2h-2v-2zM7 25h22v2h-22v-2zM3 25h2v2h-2v-2z"></path>
</symbol>
<symbol id="icon-share" viewBox="0 0 32 32">
<title>share</title>
<path d="M23.524 19.73c-1.142 0-2.165 0.505-2.86 1.303l-8.611-4.306c0.055-0.257 0.084-0.523 0.084-0.796s-0.029-0.539-0.084-0.795l8.611-4.303c0.695 0.798 1.718 1.304 2.86 1.304 2.098 0 3.799-1.701 3.799-3.798 0-2.094-1.701-3.794-3.799-3.794s-3.794 1.701-3.794 3.794c0 0.273 0.029 0.539 0.084 0.795l-8.613 4.305c-0.696-0.797-1.72-1.302-2.862-1.302-2.098 0-3.794 1.701-3.794 3.794 0 2.098 1.697 3.799 3.794 3.799 1.143 0 2.168-0.506 2.864-1.306l8.611 4.305c-0.055 0.257-0.084 0.522-0.084 0.795 0 2.098 1.697 3.799 3.794 3.799s3.799-1.701 3.799-3.799c0-2.093-1.701-3.794-3.798-3.794z"></path>
</symbol>
<symbol id="icon-comment" viewBox="0 0 32 32">
<title>comment</title>
<path d="M26 5.067h-20c-1.105 0-2 0.92-2 2.024v14c0 1.105 0.895 1.976 2 1.976h5.874l4.047 3.727 4.047-3.727h6.032c1.105 0 2-0.871 2-1.976v-14c0-1.105-0.895-2.024-2-2.024zM26 20.867h-6.853l-3.226 2.727-3.226-2.727h-6.696v-14h20v14zM8.016 13.882c0 1.105 0.895 2 2 2s2-0.895 2-2v0c0-1.105-0.895-2-2-2s-2 0.895-2 2v0zM14.016 13.882c0 1.105 0.895 2 2 2s2-0.895 2-2v0c0-1.105-0.895-2-2-2s-2 0.895-2 2v0zM20.016 13.882c0 1.105 0.895 2 2 2s2-0.895 2-2v0c0-1.105-0.895-2-2-2s-2 0.895-2 2v0z"></path>
</symbol>
<symbol id="icon-like" viewBox="0 0 32 32">
<title>like</title>
<path d="M24 12.933h-3.076c0.497-0.867 0.829-2.172 0.89-4.070 0.121-3.742-2.466-5.223-3.629-5.597-1.455-0.469-2.122 1.157-2.122 1.157 0 0.641 0.099 2.501-0.551 4.408-0.566 1.663-2.491 3.435-3.329 4.102h-6.185c-1.105 0-2 0.874-2 1.979v12c0 1.105 0.895 2.021 2 2.021h4c0.656 0 1.236-0.317 1.601-0.805 0.669 0.503 1.498 0.805 2.399 0.805h8.8c2.209 0 4-1.802 4-4.011l1.2-7.995c0-2.209-1.791-3.995-4-3.995zM6 26.933v-12h3.998c-0.032 0.6 0.002 1.25 0.002 1.979v10.021h-4zM24.8 24.923c0 1.105-0.895 2.011-2 2.011h-8.8c-1.105 0-2-0.917-2-2.021v-9.979h0.154l-0.032-0.029c0 0 4.396-2.187 5.201-6.113 0.527-2.569 0.168-3.123 0.906-2.956s2.78 1.922 1.303 5.58c-0.628 1.555-1.84 3.185-0.927 3.518h5.395c1.105 0 2 0.89 2 1.995l-1.2 7.995z"></path>
</symbol>
<symbol id="icon-qrcode" viewBox="0 0 32 32">
<title>qrcode</title>
<path d="M13 3h-10v10h10v-10zM11 11h-6v-6h6v6zM19 3v10h10v-10h-10zM27 11h-6v-6h6v6zM15 3h2v6h-2v-6zM11 17h6v-6h-2v4h-4zM3 15h6v2h-6v-2zM3 29h10v-10h-10v10zM5 21h6v6h-6v-6zM27 27h-8v2h10v-10h-2zM25 19h-10v10h2v-8h8zM19 15h9.8v2h-9.8v-2z"></path>
</symbol>
<symbol id="icon-more" viewBox="0 0 32 32">
<title>more</title>
<path d="M5.309 14.662c0.735 0 1.333 0.598 1.333 1.333s-0.598 1.333-1.333 1.333-1.333-0.598-1.333-1.333 0.598-1.333 1.333-1.333M5.309 13.329c-1.473 0-2.667 1.194-2.667 2.667s1.194 2.667 2.667 2.667c1.473 0 2.667-1.194 2.667-2.667s-1.194-2.667-2.667-2.667v0zM15.975 14.662c0.735 0 1.333 0.598 1.333 1.333s-0.598 1.333-1.333 1.333-1.333-0.598-1.333-1.333 0.598-1.333 1.333-1.333M15.975 13.329c-1.473 0-2.667 1.194-2.667 2.667s1.194 2.667 2.667 2.667c1.473 0 2.667-1.194 2.667-2.667s-1.194-2.667-2.667-2.667v0zM26.642 14.662c0.735 0 1.333 0.598 1.333 1.333s-0.598 1.333-1.333 1.333-1.333-0.598-1.333-1.333 0.598-1.333 1.333-1.333M26.642 13.329c-1.473 0-2.667 1.194-2.667 2.667s1.194 2.667 2.667 2.667c1.473 0 2.667-1.194 2.667-2.667s-1.194-2.667-2.667-2.667v0z"></path>
</symbol>
</defs>
</svg>
