<svg aria-hidden="true" style="position: absolute; width: 0; height: 0; overflow: hidden;" version="1.1" xmlns="http://www.w3.org/2000/svg" xmlns:xlink="http://www.w3.org/1999/xlink">
<defs>
<symbol id="icon-play" viewBox="0 0 32 32">
<title>play</title>
<path d="M27.009 15.96c0-0.826-0.675-1.533-1.209-1.844v-0.036l-17.708-10.261c-0.326-0.226-0.706-0.36-1.132-0.36-1.113 0-2.008 0.902-2.008 2.015 0 0.055 0.002 0.107 0.007 0.161l-0.026 0.009v20.73l0.020 0.004c-0.001 0.022-0 0.043-0 0.066 0 1.113 0.905 2.015 2.018 2.015 0.391 0 0.754-0.116 1.063-0.309l-0.044 0.006 17.811-10.314v-0.037c0.533-0.311 1.209-1.019 1.209-1.844z"></path>
</symbol>
<symbol id="icon-qq" viewBox="0 0 32 32">
<title>qq</title>
<path d="M20.562 30.251c-2.159 0-3.591-0.57-4.514-1.201-0.918 0.632-2.347 1.201-4.511 1.201-3.097 0-4.523-1.156-5.174-2.127-0.6-0.894-0.741-1.96-0.376-2.851 0.078-0.191 0.178-0.368 0.292-0.534-0.068 0.005-0.133 0.007-0.194 0.007-0.812 0-1.559-0.439-1.999-1.173-0.893-1.491-0.666-5.383 0.433-7.442 0.426-0.823 0.743-1.336 0.953-1.643 0.266-0.757 0.47-1.395 0.549-1.686-0.052-1.313 0.028-6.228 3.84-8.9 2.412-1.698 4.363-2.055 5.576-2.055 0.199 0 0.347 0.010 0.436 0.015 0.012 0.001 0.023 0.002 0.032 0.002h0.274c0.009-0.001 0.020-0.001 0.032-0.002 0.089-0.006 0.238-0.015 0.438-0.015 1.222 0 3.184 0.357 5.59 2.057 1.7 1.195 2.858 2.966 3.441 5.261 0.402 1.58 0.41 2.969 0.384 3.619 0.080 0.298 0.287 0.951 0.547 1.695 0.206 0.302 0.52 0.814 0.95 1.647 1.095 2.059 1.321 5.95 0.431 7.441-0.439 0.736-1.185 1.176-1.996 1.176-0.061 0-0.125-0.002-0.191-0.007 0.114 0.166 0.214 0.344 0.292 0.536 0.363 0.891 0.223 1.955-0.375 2.849-0.649 0.971-2.072 2.128-5.16 2.128zM16.041 26.36l0.703 0.686c1.073 1.048 2.853 1.205 3.818 1.205 1.721 0 2.963-0.44 3.498-1.24 0.224-0.335 0.295-0.711 0.185-0.981-0.092-0.225-0.432-0.61-1.089-0.951l-1.099-0.572 0.79-0.954c0.286-0.345 0.534-0.711 0.739-1.089l0.678-1.252 0.947 1.063c0.279 0.313 0.542 0.471 0.784 0.471 0.131 0 0.223-0.109 0.278-0.201 0.141-0.236 0.322-1.064 0.245-2.38-0.072-1.224-0.343-2.383-0.727-3.101l-0.007-0.013c-0.464-0.9-0.754-1.343-0.886-1.528l-0.082-0.115-0.047-0.133c-0.196-0.554-0.592-1.723-0.69-2.186l-0.028-0.131 0.008-0.134c0.021-0.366 0.060-1.676-0.318-3.165-0.462-1.819-1.356-3.205-2.655-4.119-2.084-1.472-3.675-1.692-4.438-1.692-0.135 0-0.236 0.007-0.309 0.011-0.052 0.003-0.097 0.006-0.146 0.006h-0.306c-0.050 0-0.095-0.003-0.147-0.006-0.072-0.005-0.172-0.011-0.305-0.011-0.756 0-2.336 0.22-4.426 1.692-1.306 0.915-2.202 2.304-2.666 4.129-0.38 1.494-0.341 2.807-0.32 3.174l0.008 0.134-0.028 0.131c-0.116 0.546-0.634 2.012-0.693 2.177l-0.047 0.134-0.083 0.115c-0.136 0.189-0.432 0.638-0.889 1.523l-0.007 0.013c-0.385 0.718-0.657 1.876-0.729 3.099-0.077 1.315 0.104 2.142 0.245 2.378 0.080 0.133 0.175 0.201 0.283 0.201 0.244 0 0.509-0.159 0.79-0.473l0.946-1.058 0.678 1.247c0.205 0.377 0.455 0.743 0.742 1.089l0.794 0.955-1.103 0.572c-0.659 0.342-1.001 0.726-1.093 0.952-0.11 0.269-0.039 0.644 0.186 0.979 0.537 0.801 1.785 1.241 3.514 1.241 2.141 0 3.251-0.653 3.805-1.201l0.699-0.69z"></path>
</symbol>
<symbol id="icon-v-top" viewBox="0 0 32 32">
<title>v-top</title>
<path d="M16.702 8.822c0.013 0.013 0.022 0.029 0.035 0.043l12.517 12.517c0.385 0.385 0.385 1.010 0 1.396s-1.010 0.385-1.396 0l-11.858-11.858-11.858 11.858c-0.385 0.385-1.010 0.385-1.396 0s-0.385-1.010 0-1.396l12.517-12.517c0.012-0.014 0.022-0.029 0.035-0.043 0.194-0.194 0.448-0.29 0.702-0.289 0.254-0.001 0.508 0.095 0.702 0.289z"></path>
</symbol>
<symbol id="icon-alert" viewBox="0 0 32 32">
<title>alert</title>
<path d="M16 30c7.732 0 14-6.268 14-14s-6.268-14-14-14-14 6.268-14 14c0 7.732 6.268 14 14 14zM14 6h4v14h-4v-14zM14 22h4v4h-4v-4z"></path>
</symbol>
<symbol id="icon-ok" viewBox="0 0 32 32">
<title>ok</title>
<path d="M16.003 1.994c-7.732 0-14 6.271-14 14.006s6.268 14.006 14 14.006 14-6.271 14-14.006c0-7.735-6.268-14.006-14-14.006zM17.145 20.123l-2.83 2.83-0.021-0.021-0.021 0.021-2.83-2.83 0.021-0.021-4.223-4.223 2.83-2.83 4.223 4.223 8.225-8.225 2.83 2.83-8.225 8.225 0.021 0.021z"></path>
</symbol>
<symbol id="icon-info" viewBox="0 0 32 32">
<title>info</title>
<path d="M16 2c-7.732 0-14 6.268-14 14s6.268 14 14 14 14-6.268 14-14c0-7.732-6.268-14-14-14zM18 26h-4v-14h4v14zM18 10h-4v-4h4v4z"></path>
</symbol>
<symbol id="icon-question" viewBox="0 0 32 32">
<title>question</title>
<path d="M16.004 1.973c-7.732 0-14 6.268-14 14s6.268 14 14 14c7.732 0 14-6.268 14-14s-6.268-14-14-14zM15.549 26.073c-1.105 0-2-0.895-2-2s0.895-2 2-2c1.105 0 2 0.895 2 2s-0.895 2-2 2zM21.645 16.414c-0.004 0.005-0.007 0.010-0.011 0.015-0.062 0.089-0.724 0.928-1.455 1.383-0.403 0.25-2.171 1.188-2.722 2.255h-3.501c0.623-2.333 2.837-3.911 4.584-5.037 0.487-0.314 0.998-1.437 0.998-2.361 0-1.811-1.468-3.281-3.279-3.281s-3.279 1.467-3.279 3.267c0 0-3.293-0.008-3.276-0.101 0.062-3.547 2.972-6.439 6.555-6.439 3.622 0 6.558 2.949 6.558 6.571 0 1.39-0.434 2.669-1.172 3.729z"></path>
</symbol>
<symbol id="icon-to-top" viewBox="0 0 32 32">
<title>to-top</title>
<path d="M16.683 11.541c-0.197-0.197-0.455-0.294-0.713-0.292-0.258-0.002-0.516 0.096-0.713 0.292l-11.395 11.395c-0.391 0.391-0.391 1.024 0 1.414s1.024 0.391 1.414 0l10.694-10.694 10.694 10.694c0.391 0.391 1.024 0.391 1.414 0s0.391-1.024 0-1.414l-11.395-11.395zM27.667 7.333h-23.333c-0.552 0-1 0.448-1 1s0.448 1 1 1h23.333c0.552 0 1-0.448 1-1s-0.448-1-1-1z"></path>
</symbol>
<symbol id="icon-v-bottom" viewBox="0 0 32 32">
<title>v-bottom</title>
<path d="M16.702 22.978c0.013-0.013 0.022-0.029 0.035-0.043l12.517-12.517c0.385-0.385 0.385-1.010 0-1.396s-1.010-0.385-1.396 0l-11.858 11.858-11.858-11.858c-0.385-0.385-1.010-0.385-1.396 0s-0.385 1.010 0 1.396l12.517 12.517c0.012 0.014 0.022 0.029 0.035 0.043 0.194 0.194 0.448 0.29 0.702 0.289 0.254 0.001 0.508-0.095 0.702-0.289z"></path>
</symbol>
<symbol id="icon-v-left" viewBox="0 0 32 32">
<title>v-left</title>
<path d="M11.063 16l11.996-11.996c0.39-0.39 0.39-1.022 0-1.412s-1.022-0.39-1.412 0l-12.663 12.663c-0.014 0.013-0.030 0.022-0.043 0.035-0.196 0.196-0.293 0.453-0.292 0.71-0.001 0.257 0.096 0.514 0.292 0.71 0.013 0.013 0.029 0.023 0.043 0.035l12.663 12.663c0.39 0.39 1.022 0.39 1.412 0s0.39-1.022 0-1.412l-11.996-11.996z"></path>
</symbol>
<symbol id="icon-mobile" viewBox="0 0 32 32">
<title>mobile</title>
<path d="M22.667 0.667h-13.333c-2.209 0-4 1.791-4 4v22.667c0 2.209 1.791 4 4 4h13.333c2.209 0 4-1.791 4-4v-22.667c0-2.209-1.791-4-4-4zM9.333 2.667h13.333c1.105 0 2 0.895 2 2v16.667h-17.333v-16.667c0-1.105 0.895-2 2-2zM22.667 29.333h-13.333c-1.105 0-2-0.895-2-2v-4h17.333v4c0 1.105-0.895 2-2 2zM15 26.333c0 0.552 0.448 1 1 1s1-0.448 1-1v0c0-0.552-0.448-1-1-1s-1 0.448-1 1v0z"></path>
</symbol>
<symbol id="icon-weixin" viewBox="0 0 32 32">
<title>weixin</title>
<path d="M7.267 9.867c0 0.7 0.567 1.267 1.267 1.267s1.267-0.567 1.267-1.267v0c0-0.7-0.567-1.267-1.267-1.267s-1.267 0.567-1.267 1.267v0zM15.267 9.867c0 0.7 0.567 1.267 1.267 1.267s1.267-0.567 1.267-1.267v0c0-0.7-0.567-1.267-1.267-1.267s-1.267 0.567-1.267 1.267v0zM15.933 17.867c0 0.7 0.567 1.267 1.267 1.267s1.267-0.567 1.267-1.267v0c0-0.7-0.567-1.267-1.267-1.267s-1.267 0.567-1.267 1.267v0zM22.6 17.867c0 0.7 0.567 1.267 1.267 1.267s1.267-0.567 1.267-1.267v0c0-0.7-0.567-1.267-1.267-1.267s-1.267 0.567-1.267 1.267v0zM28.112 24.809c1.461-1.387 2.387-3.275 2.405-5.317-0.006-0.753-0.13-1.468-0.353-2.137-0.854-2.619-3.264-4.709-6.361-5.552-0.233-2.775-2.090-5.19-4.395-6.666-2.878-1.842-6.549-2.286-9.848-1.547-3.001 0.673-5.906 2.551-7.31 5.349-0.693 1.381-1.001 2.954-0.804 4.492 0.238 1.862 1.099 3.524 2.39 4.879 0.121 0.127 0.246 0.248 0.375 0.367-0.187 0.815-0.374 1.63-0.561 2.446-0.204 0.89 0.678 1.516 1.469 1.129 0.914-0.447 1.827-0.893 2.741-1.34 1.143 0.43 2.321 0.703 3.536 0.818 0.020 0.055 0.040 0.11 0.061 0.165 0.794 2.116 2.581 3.773 4.632 4.688 2.769 1.236 5.908 1.284 8.732 0.248 0.761 0.372 1.523 0.744 2.284 1.116 0.791 0.387 1.673-0.239 1.469-1.129-0.154-0.67-0.308-1.34-0.461-2.011zM11 19.456c0 0.068 0.001 0.136 0.003 0.203-0.929-0.125-1.81-0.357-2.623-0.68l-2.78 1.088 0.452-2.402c-1.7-1.314-2.752-3.135-2.752-5.148 0-4.004 4.164-7.25 9.3-7.25 4.67 0 8.535 2.683 9.199 6.18-0.345-0.030-0.695-0.047-1.049-0.047-5.385 0-9.75 3.607-9.75 8.056zM26.921 23.181c-0.197 0.2-0.406 0.39-0.622 0.57-0.008 0.007-0.016 0.015-0.024 0.022-0.018 0.014-0.036 0.028-0.054 0.042l0.445 1.918-1.958-0.986c-0.023 0.011-0.045 0.022-0.068 0.032-0.138 0.036-0.253 0.095-0.343 0.131-0.871 0.346-1.826 0.56-2.676 0.632-0.458 0.039-0.92 0.041-1.379 0.021-0.206-0.009-2.164-0.020-4.296-1.313-0.151-0.092-1.148-0.855-2.052-1.972-0.55-0.845-0.861-1.805-0.861-2.823 0-3.397 3.462-6.151 7.733-6.151 0.457 0 0.905 0.032 1.341 0.092 1.19 0.191 2.058 0.589 2.815 0.963 1.37 0.677 2.341 1.817 2.466 1.969 0.006 0.007 0.011 0.013 0.017 0.020 0.205 0.252 0.332 0.438 0.424 0.598 0.016 0.029 0.033 0.059 0.048 0.088 0.089 0.167 0.145 0.312 0.227 0.486 0.009 0.020 0.113 0.284 0.148 0.391 0.175 0.527 0.264 1.548 0.16 2.47-0.198 1.041-0.724 1.997-1.492 2.798z"></path>
</symbol>
<symbol id="icon-v-right" viewBox="0 0 32 32">
<title>v-right</title>
<path d="M20.937 16l-11.996-11.996c-0.39-0.39-0.39-1.022 0-1.412s1.022-0.39 1.412 0l12.663 12.663c0.014 0.013 0.030 0.022 0.043 0.035 0.196 0.196 0.293 0.453 0.292 0.71 0.001 0.257-0.096 0.514-0.292 0.71-0.013 0.013-0.029 0.023-0.043 0.035l-12.663 12.663c-0.39 0.39-1.022 0.39-1.412 0s-0.39-1.022 0-1.412l11.996-11.996z"></path>
</symbol>
<symbol id="icon-right" viewBox="0 0 32 32">
<title>right</title>
<path d="M28.926 9.769l-2.828-2.828-12.731 12.731-7.069-7.069-2.828 2.828 9.899 9.899 2.828-2.828-0.002-0.002z"></path>
</symbol>
<symbol id="icon-cross" viewBox="0 0 32 32">
<title>cross</title>
<path d="M24.25 5.865l-8.25 8.25-8.25-8.25c-0.521-0.521-1.365-0.521-1.886 0s-0.521 1.365 0 1.886l8.25 8.25-8.25 8.25c-0.521 0.521-0.521 1.365 0 1.886s1.365 0.521 1.886 0l8.25-8.25 8.25 8.25c0.521 0.521 1.365 0.521 1.886 0s0.521-1.365 0-1.886l-8.25-8.25 8.25-8.25c0.521-0.521 0.521-1.365 0-1.886s-1.365-0.521-1.886 0z"></path>
</symbol>
<symbol id="icon-search" viewBox="0 0 32 32">
<title>search</title>
<path d="M29.376 27.37l-4.294-4.294c1.633-2.111 2.605-4.759 2.605-7.634 0-6.897-5.591-12.489-12.489-12.489s-12.489 5.591-12.489 12.489 5.591 12.489 12.489 12.489c2.518 0 4.862-0.746 6.823-2.028l4.411 4.411 2.944-2.944zM9.195 21.444c-1.603-1.603-2.486-3.735-2.486-6.002s0.883-4.399 2.486-6.002c1.603-1.603 3.735-2.486 6.002-2.486s4.399 0.883 6.002 2.486c1.603 1.603 2.486 3.735 2.486 6.002s-0.883 4.399-2.486 6.002c-1.603 1.603-3.735 2.486-6.002 2.486s-4.399-0.883-6.002-2.486z"></path>
</symbol>
<symbol id="icon-v-bottom-s" viewBox="0 0 32 32">
<title>v-bottom-s</title>
<path d="M15.922 20.922l-9.575-5.745 1.372-2.287 8.203 4.922 8.203-4.922 1.372 2.287z"></path>
</symbol>
<symbol id="icon-v-top-s" viewBox="0 0 32 32">
<title>v-top-s</title>
<path d="M15.922 12.89l-9.575 5.745 1.372 2.287 8.203-4.922 8.203 4.922 1.372-2.287z"></path>
</symbol>
<symbol id="icon-message" viewBox="0 0 32 32">
<title>message</title>
<path d="M26.828 4.542h-21.656c-1.2 0-2.172 0.969-2.172 2.164v16.256c0 1.199 0.972 2.164 2.172 2.164h7.361l3.467 4.333 3.467-4.333h7.361c1.2 0 2.172-0.969 2.172-2.164v-16.256c0-1.199-0.972-2.164-2.172-2.164zM27 22.961c0 0.090-0.077 0.164-0.172 0.164h-8.323l-2.505 3.132-2.505-3.132h-8.323c-0.096 0-0.172-0.072-0.172-0.164v-16.256c0-0.090 0.077-0.164 0.172-0.164h21.656c0.096 0 0.172 0.072 0.172 0.164v16.256zM10.583 11.125h10.833v2h-10.833v-2zM10.583 16.542h10.833v2h-10.833v-2z"></path>
</symbol>
<symbol id="icon-ke-logo" viewBox="0 0 32 32">
<title>ke logo</title>
<path d="M31.129 12.695l-14.559-9.82c-0.341-0.23-0.787-0.23-1.127 0l-14.56 9.82c-0.296 0.2-0.296 0.636 0 0.836l5.394 3.638v6.045l4.481-3.023 4.684 3.16c0.341 0.23 0.787 0.23 1.128 0l14.559-9.82c0.296-0.2 0.296-0.636 0-0.836zM20.633 13.531l-5.59 3.771c-0.335 0.226-0.786-0.014-0.786-0.418v-7.541c0-0.404 0.451-0.644 0.786-0.418l5.59 3.771c0.296 0.2 0.296 0.636 0 0.836zM25.735 18.466v4.212c0 0.335-0.167 0.648-0.444 0.836l-8.722 5.882c-0.341 0.23-0.787 0.23-1.127 0l-8.204-5.534 3.521-2.374 4.683 3.16c0.341 0.23 0.787 0.23 1.128 0l9.166-6.183z"></path>
</symbol>
<symbol id="icon-calendar" viewBox="0 0 32 32">
<title>calendar</title>
<path d="M3 6v20h26v-20h-26zM27 8v4h-22v-4h22zM5 24v-10h22v10h-22zM7 16h4v2h-4v-2zM7 20h4v2h-4v-2zM13 16h6v2h-6v-2zM13 20h6v2h-6v-2zM21 16h4v2h-4v-2zM21 20h4v2h-4v-2z"></path>
</symbol>
<symbol id="icon-time" viewBox="0 0 32 32">
<title>time</title>
<path d="M16 2c-7.732 0-14 6.268-14 14s6.268 14 14 14 14-6.268 14-14c0-7.732-6.268-14-14-14zM16 28c-6.627 0-12-5.373-12-12s5.373-12 12-12 12 5.373 12 12-5.373 12-12 12zM17 16.586v-9.586c0-0.552-0.448-1-1-1s-1 0.448-1 1v10c0 0.297 0.132 0.56 0.337 0.744 0.012 0.014 0.021 0.029 0.034 0.042l4.243 4.243c0.391 0.391 1.024 0.391 1.414 0s0.391-1.024 0-1.414l-4.028-4.028z"></path>
</symbol>
<symbol id="icon-download-asyn" viewBox="0 0 32 32">
<title>download-asyn</title>
<path d="M24.667 5.308c0-1.197-0.97-2.167-2.167-2.167h-13c-1.197 0-2.167 0.97-2.167 2.167v18.417h17.333v-18.417zM22.5 21.558h-13v-16.25h13v16.25zM27.917 20.475h-1.083v5.417h-21.667v-5.417h-1.083c-0.598 0-1.083 0.485-1.083 1.083v5.417c0 0.598 0.485 1.083 1.083 1.083h23.833c0.598 0 1.083-0.485 1.083-1.083v-5.417c0-0.598-0.485-1.083-1.083-1.083zM11.667 9.642h8.667v2.167h-8.667v-2.167zM11.667 15.058h8.667v2.167h-8.667v-2.167z"></path>
</symbol>
</defs>
</svg>
