<svg aria-hidden="true" style="position: absolute; width: 0; height: 0; overflow: hidden;" version="1.1" xmlns="http://www.w3.org/2000/svg" xmlns:xlink="http://www.w3.org/1999/xlink">
<defs>
<symbol id="icon-cross" viewBox="0 0 32 32">
<title>cross</title>
<path d="M24.25 5.865l-8.25 8.25-8.25-8.25c-0.521-0.521-1.365-0.521-1.886 0s-0.521 1.365 0 1.886l8.25 8.25-8.25 8.25c-0.521 0.521-0.521 1.365 0 1.886s1.365 0.521 1.886 0l8.25-8.25 8.25 8.25c0.521 0.521 1.365 0.521 1.886 0s0.521-1.365 0-1.886l-8.25-8.25 8.25-8.25c0.521-0.521 0.521-1.365 0-1.886s-1.365-0.521-1.886 0z"></path>
</symbol>
<symbol id="icon-edit" viewBox="0 0 32 32">
<title>edit</title>
<path d="M26.667 24.703c0 1.102-0.868 1.964-1.97 1.964h-17.362c-1.102 0-2.001-0.862-2.001-1.964v-17.367c0-1.102 0.899-2.002 2.001-2.002h9.333v-2h-9.333c-2.204 0-4.001 1.798-4.001 4.002v17.367c0 2.204 1.797 3.964 4.001 3.964h17.362c2.204 0 3.97-1.76 3.97-3.964v-10.703h-2v10.703zM24.251 2.454l-14.599 14.599-0.005 5.144 5.144-0.006 14.599-14.599-5.138-5.138zM13.908 20.057l-2.305 0.090 0.090-2.306 12.511-12.511 2.216 2.216-12.511 12.511z"></path>
</symbol>
<symbol id="icon-del" viewBox="0 0 32 32">
<title>del</title>
<path d="M28.333 6.451h-6v-1.577c0-1.48-1.087-2.684-2.422-2.684h-7.822c-1.336 0-2.422 1.204-2.422 2.684v1.577h-6v2h1.021l1.003 18.996c0.014 1.292 0.963 2.339 2.126 2.339h16.367c1.164 0 2.112-1.046 2.126-2.339l1.003-18.996h1.021v-2zM11.667 4.874c0-0.392 0.223-0.684 0.422-0.684h7.822c0.199 0 0.422 0.293 0.422 0.684v1.577h-8.667v-1.577zM24.311 27.364l-0.001 0.053c0 0.208-0.094 0.34-0.139 0.368h-16.341c-0.046-0.028-0.139-0.16-0.139-0.368v-0.026l-1-18.94h18.62l-0.999 18.914zM12.281 23.867l-0.654-10.667h-1.961l0.654 10.667zM22.333 13.2h-1.961l-0.654 10.667h1.961zM15.022 13.2h1.961v10.667h-1.961v-10.667z"></path>
</symbol>
<symbol id="icon-copy" viewBox="0 0 32 32">
<title>copy</title>
<path d="M14.188 17.164h10.632v2.011h-10.632v-2.011zM14.188 21.579h10.632v2.011h-10.632v-2.011zM14.255 12.748h10.632v2.011h-10.632v-2.011zM26.248 6.723h-3.867v-1.634c0-1.467-1.2-2.667-2.667-2.667h-13.622c-1.467 0-2.667 1.2-2.667 2.667v17.382c0 1.467 1.2 2.667 2.667 2.667h3.867v1.634c0 1.467 1.2 2.667 2.667 2.667h13.622c1.467 0 2.667-1.2 2.667-2.667v-17.382c0-1.467-1.2-2.667-2.667-2.667zM9.96 9.389v13.991h-3.244c-0.733 0-1.333-0.6-1.333-1.333v-16.267c0-0.733 0.6-1.333 1.333-1.333h12.356c0.733 0 1.333 0.6 1.333 1.333v0.942h-7.778c-1.467 0-2.667 1.2-2.667 2.667zM26.938 26.348c0 0.733-0.6 1.333-1.333 1.333h-12.356c-0.733 0-1.333-0.6-1.333-1.333v-16.267c0-0.733 0.6-1.333 1.333-1.333h12.356c0.733 0 1.333 0.6 1.333 1.333v16.267z"></path>
</symbol>
<symbol id="icon-view" viewBox="0 0 32 32">
<title>view</title>
<path d="M15.933 6c-10.051 0-15 10-15 10s4.97 10 15 10 15.2-10 15.2-10-5.149-10-15.2-10zM15.953 23.987c-8.011 0-11.98-7.987-11.98-7.987s3.953-7.987 11.98-7.987 12.14 7.987 12.14 7.987-4.13 7.987-12.14 7.987zM15.933 10c-3.314 0-6 2.686-6 6s2.686 6 6 6 6-2.686 6-6-2.686-6-6-6zM15.775 19.971c-2.209 0-4-1.791-4-4s1.791-4 4-4c2.209 0 4 1.791 4 4s-1.791 4-4 4z"></path>
</symbol>
<symbol id="icon-add" viewBox="0 0 32 32">
<title>add</title>
<path d="M16 26c0.552 0 1-0.448 1-1v0-8h8c0.552 0 1-0.448 1-1s-0.448-1-1-1v0h-8v-8c0-0.552-0.448-1-1-1s-1 0.448-1 1v0 8h-8c-0.552 0-1 0.448-1 1s0.448 1 1 1v0h8v8c0 0.552 0.448 1 1 1v0"></path>
</symbol>
<symbol id="icon-up" viewBox="0 0 32 32">
<title>up</title>
<path d="M20 14v16h-8v-16h-6l10-12 10 12z"></path>
</symbol>
<symbol id="icon-down" viewBox="0 0 32 32">
<title>down</title>
<path d="M20 18v-16h-8v16h-6l10 12 10-12z"></path>
</symbol>
<symbol id="icon-down2" viewBox="0 0 32 32">
<title>down2</title>
<path d="M18.524 3.866c0-1.049-0.86-1.9-1.921-1.9h-1.207c-1.061 0-1.921 0.851-1.921 1.9v24.284c0 1.049 0.86 1.9 1.921 1.9h1.207c1.061 0 1.921-0.851 1.921-1.9v-24.284zM6.081 14.683c-0.75-0.742-1.967-0.742-2.717 0l-0.853 0.844c-0.75 0.742-0.75 1.945 0 2.687l11.184 11.016c0.75 0.742 1.967 0.742 2.717 0l0.853-0.844c0.75-0.742 0.75-1.945 0-2.687l-11.184-11.016zM14.717 25.699c-0.75 0.742-0.75 1.945 0 2.687l0.853 0.844c0.75 0.742 1.967 0.742 2.717 0l11.133-11.016c0.75-0.742 0.75-1.945 0-2.687l-0.853-0.844c-0.75-0.742-1.967-0.742-2.717 0l-11.133 11.016z"></path>
</symbol>
<symbol id="icon-insert" viewBox="0 0 32 32">
<title>insert</title>
<path d="M4 1.933h24v2h-24v-2zM4 27.933h24v2h-24v-2zM15 7.267v8h-8v2h8v8h2v-8h8v-2h-8v-8z"></path>
</symbol>
</defs>
</svg>
